<mxfile host="www.draw.io" modified="2020-01-17T06:43:00.966Z" agent="Mozilla/5.0 (Macintosh; Intel Mac OS X 10.15; rv:72.0) Gecko/20100101 Firefox/72.0" etag="wXljfBM8SzgrUYZm0Z3q" version="12.5.5" type="github">
  <diagram id="MOwnTU56LkCQt1FvEv5g" name="Page-1">
    <mxGraphModel dx="946" dy="567" grid="0" gridSize="10" guides="1" tooltips="1" connect="1" arrows="1" fold="1" page="1" pageScale="1" pageWidth="1100" pageHeight="850" background="#8095B3" math="0" shadow="0">
      <root>
        <mxCell id="0"/>
        <mxCell id="1" parent="0"/>
        <mxCell id="UIQq5TDXMI4RmRg3ufpn-1" value="Customer hierarchy" style="strokeWidth=2;html=1;shape=mxgraph.flowchart.start_2;whiteSpace=wrap;labelPosition=left;verticalLabelPosition=middle;align=right;verticalAlign=middle;fillColor=#3399FF;fontStyle=1;fontSize=18;fontColor=#FFD966;" vertex="1" parent="1">
          <mxGeometry x="126" y="95" width="20" height="20" as="geometry"/>
        </mxCell>
        <mxCell id="UIQq5TDXMI4RmRg3ufpn-2" value="" style="endArrow=none;html=1;labelPosition=center;verticalLabelPosition=bottom;align=center;verticalAlign=top;entryX=0.5;entryY=1;entryDx=0;entryDy=0;entryPerimeter=0;exitX=0.5;exitY=0;exitDx=0;exitDy=0;" edge="1" parent="1" source="UIQq5TDXMI4RmRg3ufpn-30" target="UIQq5TDXMI4RmRg3ufpn-1">
          <mxGeometry width="50" height="50" relative="1" as="geometry">
            <mxPoint x="105.07042253521126" y="176" as="sourcePoint"/>
            <mxPoint x="88" y="96" as="targetPoint"/>
          </mxGeometry>
        </mxCell>
        <mxCell id="UIQq5TDXMI4RmRg3ufpn-15" value="" style="endArrow=none;html=1;exitX=0.855;exitY=0.145;exitDx=0;exitDy=0;entryX=0.25;entryY=1;entryDx=0;entryDy=0;exitPerimeter=0;fontColor=#FFFFFF;" edge="1" parent="1" source="UIQq5TDXMI4RmRg3ufpn-1" target="UIQq5TDXMI4RmRg3ufpn-29">
          <mxGeometry width="50" height="50" relative="1" as="geometry">
            <mxPoint x="258" y="221" as="sourcePoint"/>
            <mxPoint x="180.5" y="64" as="targetPoint"/>
          </mxGeometry>
        </mxCell>
        <mxCell id="UIQq5TDXMI4RmRg3ufpn-29" value="&lt;div&gt;CST_TYPE&lt;/div&gt;&lt;div&gt;(I, B, C)&lt;br&gt;&lt;/div&gt;" style="text;html=1;strokeColor=none;fillColor=none;align=center;verticalAlign=middle;whiteSpace=wrap;rounded=0;fontSize=16;fontColor=#FFFFFF;" vertex="1" parent="1">
          <mxGeometry x="178" y="24" width="119" height="30" as="geometry"/>
        </mxCell>
        <mxCell id="UIQq5TDXMI4RmRg3ufpn-30" value="&lt;div&gt;CST_CATEGORY&lt;/div&gt;&lt;div&gt;(Giống TPKT)&lt;br&gt;&lt;/div&gt;" style="text;html=1;strokeColor=none;fillColor=none;align=center;verticalAlign=middle;whiteSpace=wrap;rounded=0;fontSize=16;fontColor=#FFFFFF;" vertex="1" parent="1">
          <mxGeometry x="36" y="189" width="119" height="48" as="geometry"/>
        </mxCell>
        <mxCell id="UIQq5TDXMI4RmRg3ufpn-31" value="Không có nhu cầu Hierarchy" style="text;html=1;strokeColor=none;fillColor=none;align=center;verticalAlign=middle;whiteSpace=wrap;rounded=0;fontColor=#FFFFFF;fontSize=16;" vertex="1" parent="1">
          <mxGeometry x="171" y="108" width="148" height="20" as="geometry"/>
        </mxCell>
        <mxCell id="UIQq5TDXMI4RmRg3ufpn-56" value="" style="edgeStyle=none;rounded=0;orthogonalLoop=1;jettySize=auto;html=1;endArrow=none;endFill=0;fontSize=16;fontColor=#FFFFFF;entryX=0.103;entryY=1.04;entryDx=0;entryDy=0;entryPerimeter=0;" edge="1" parent="1" source="UIQq5TDXMI4RmRg3ufpn-33" target="UIQq5TDXMI4RmRg3ufpn-43">
          <mxGeometry relative="1" as="geometry">
            <mxPoint x="638" y="198" as="targetPoint"/>
          </mxGeometry>
        </mxCell>
        <mxCell id="UIQq5TDXMI4RmRg3ufpn-33" value="DIM_CASA_MASTER" style="strokeWidth=2;html=1;shape=mxgraph.flowchart.start_2;whiteSpace=wrap;labelPosition=left;verticalLabelPosition=middle;align=right;verticalAlign=middle;fillColor=#3399FF;fontStyle=1;fontSize=18;fontColor=#FFD966;" vertex="1" parent="1">
          <mxGeometry x="538" y="188" width="20" height="20" as="geometry"/>
        </mxCell>
        <mxCell id="UIQq5TDXMI4RmRg3ufpn-58" value="" style="edgeStyle=none;rounded=0;orthogonalLoop=1;jettySize=auto;html=1;endArrow=none;endFill=0;fontSize=16;fontColor=#FFFFFF;" edge="1" parent="1" source="UIQq5TDXMI4RmRg3ufpn-36" target="UIQq5TDXMI4RmRg3ufpn-57">
          <mxGeometry relative="1" as="geometry"/>
        </mxCell>
        <mxCell id="UIQq5TDXMI4RmRg3ufpn-61" value="" style="edgeStyle=none;rounded=0;orthogonalLoop=1;jettySize=auto;html=1;endArrow=none;endFill=0;fontSize=16;fontColor=#FFFFFF;" edge="1" parent="1" source="UIQq5TDXMI4RmRg3ufpn-36" target="UIQq5TDXMI4RmRg3ufpn-60">
          <mxGeometry relative="1" as="geometry"/>
        </mxCell>
        <mxCell id="UIQq5TDXMI4RmRg3ufpn-36" value="RECORD_STAT" style="text;html=1;strokeColor=none;fillColor=none;align=center;verticalAlign=middle;whiteSpace=wrap;rounded=0;fontSize=16;fontColor=#FFFFFF;" vertex="1" parent="1">
          <mxGeometry x="456" y="270" width="119" height="30" as="geometry"/>
        </mxCell>
        <mxCell id="UIQq5TDXMI4RmRg3ufpn-60" value="O: Open" style="text;html=1;strokeColor=none;fillColor=none;align=center;verticalAlign=middle;whiteSpace=wrap;rounded=0;fontSize=16;fontColor=#FFFFFF;" vertex="1" parent="1">
          <mxGeometry x="582" y="323" width="100" height="27" as="geometry"/>
        </mxCell>
        <mxCell id="UIQq5TDXMI4RmRg3ufpn-57" value="C: Closed" style="text;html=1;strokeColor=none;fillColor=none;align=center;verticalAlign=middle;whiteSpace=wrap;rounded=0;fontSize=16;fontColor=#FFFFFF;" vertex="1" parent="1">
          <mxGeometry x="409" y="323" width="109" height="38" as="geometry"/>
        </mxCell>
        <mxCell id="UIQq5TDXMI4RmRg3ufpn-38" value="" style="endArrow=none;html=1;entryX=0.345;entryY=-0.033;entryDx=0;entryDy=0;fontColor=#FFFFFF;entryPerimeter=0;exitX=0.5;exitY=1;exitDx=0;exitDy=0;exitPerimeter=0;" edge="1" parent="1" source="UIQq5TDXMI4RmRg3ufpn-33" target="UIQq5TDXMI4RmRg3ufpn-36">
          <mxGeometry width="50" height="50" relative="1" as="geometry">
            <mxPoint x="548" y="216" as="sourcePoint"/>
            <mxPoint x="573.65" y="126" as="targetPoint"/>
          </mxGeometry>
        </mxCell>
        <mxCell id="UIQq5TDXMI4RmRg3ufpn-40" value="Total Record: 11tr" style="text;html=1;strokeColor=none;fillColor=none;align=center;verticalAlign=middle;whiteSpace=wrap;rounded=0;fontColor=#FFFFFF;fontSize=16;" vertex="1" parent="1">
          <mxGeometry x="367" y="212" width="148" height="20" as="geometry"/>
        </mxCell>
        <mxCell id="UIQq5TDXMI4RmRg3ufpn-46" value="" style="rounded=0;orthogonalLoop=1;jettySize=auto;html=1;fontSize=16;fontColor=#FFFFFF;endArrow=none;endFill=0;" edge="1" parent="1" source="UIQq5TDXMI4RmRg3ufpn-43" target="UIQq5TDXMI4RmRg3ufpn-44">
          <mxGeometry relative="1" as="geometry"/>
        </mxCell>
        <mxCell id="UIQq5TDXMI4RmRg3ufpn-51" value="" style="rounded=0;orthogonalLoop=1;jettySize=auto;html=1;endArrow=none;endFill=0;fontSize=16;fontColor=#FFFFFF;" edge="1" parent="1" source="UIQq5TDXMI4RmRg3ufpn-43" target="UIQq5TDXMI4RmRg3ufpn-50">
          <mxGeometry relative="1" as="geometry"/>
        </mxCell>
        <mxCell id="UIQq5TDXMI4RmRg3ufpn-54" value="" style="edgeStyle=none;rounded=0;orthogonalLoop=1;jettySize=auto;html=1;endArrow=none;endFill=0;fontSize=16;fontColor=#FFFFFF;" edge="1" parent="1" source="UIQq5TDXMI4RmRg3ufpn-43" target="UIQq5TDXMI4RmRg3ufpn-53">
          <mxGeometry relative="1" as="geometry"/>
        </mxCell>
        <mxCell id="UIQq5TDXMI4RmRg3ufpn-43" value="AC_TYPE" style="text;html=1;strokeColor=none;fillColor=none;align=center;verticalAlign=middle;whiteSpace=wrap;rounded=0;fontSize=16;fontColor=#FFFFFF;" vertex="1" parent="1">
          <mxGeometry x="585" y="143" width="78" height="25" as="geometry"/>
        </mxCell>
        <mxCell id="UIQq5TDXMI4RmRg3ufpn-53" value="S: Saving" style="text;html=1;strokeColor=none;fillColor=none;align=center;verticalAlign=middle;whiteSpace=wrap;rounded=0;fontSize=16;fontColor=#FFFFFF;" vertex="1" parent="1">
          <mxGeometry x="743" y="143" width="78" height="25" as="geometry"/>
        </mxCell>
        <mxCell id="UIQq5TDXMI4RmRg3ufpn-50" value="U: TKTT" style="text;html=1;strokeColor=none;fillColor=none;align=center;verticalAlign=middle;whiteSpace=wrap;rounded=0;fontSize=16;fontColor=#FFFFFF;" vertex="1" parent="1">
          <mxGeometry x="790" y="77" width="78" height="25" as="geometry"/>
        </mxCell>
        <mxCell id="UIQq5TDXMI4RmRg3ufpn-47" value="N: Nostro" style="text;html=1;strokeColor=none;fillColor=none;align=center;verticalAlign=middle;whiteSpace=wrap;rounded=0;fontSize=16;fontColor=#FFFFFF;" vertex="1" parent="1">
          <mxGeometry x="765" y="38" width="78" height="25" as="geometry"/>
        </mxCell>
        <mxCell id="UIQq5TDXMI4RmRg3ufpn-44" value="Y: CKH" style="text;html=1;strokeColor=none;fillColor=none;align=center;verticalAlign=middle;whiteSpace=wrap;rounded=0;fontSize=16;fontColor=#FFFFFF;" vertex="1" parent="1">
          <mxGeometry x="650" y="30" width="78" height="25" as="geometry"/>
        </mxCell>
        <mxCell id="UIQq5TDXMI4RmRg3ufpn-52" value="" style="rounded=0;orthogonalLoop=1;jettySize=auto;html=1;fontSize=16;fontColor=#FFFFFF;endArrow=none;endFill=0;entryX=0;entryY=1;entryDx=0;entryDy=0;" edge="1" parent="1" source="UIQq5TDXMI4RmRg3ufpn-43" target="UIQq5TDXMI4RmRg3ufpn-47">
          <mxGeometry relative="1" as="geometry">
            <mxPoint x="634" y="153" as="sourcePoint"/>
            <mxPoint x="634" y="73" as="targetPoint"/>
          </mxGeometry>
        </mxCell>
      </root>
    </mxGraphModel>
  </diagram>
</mxfile>
